<?xml version="1.0" encoding="UTF-8"?>
<svg width="500" height="500" viewBox="0 0 500 500" xmlns="http://www.w3.org/2000/svg">
  <path d="M250 450c110.457 0 200-89.543 200-200S360.457 50 250 50 50 139.543 50 250s89.543 200 200 200z" fill="#45C2B1" opacity="0.2"/>
  <circle cx="250" cy="250" r="120" fill="#45C2B1" opacity="0.4"/>
  <path d="M250 310c33.137 0 60-26.863 60-60s-26.863-60-60-60-60 26.863-60 60 26.863 60 60 60z" fill="#45C2B1"/>
  <path d="M250 290c22.091 0 40-17.909 40-40s-17.909-40-40-40-40 17.909-40 40 17.909 40 40 40z" fill="#29383F"/>
  <circle cx="250" cy="250" r="15" fill="#45C2B1"/>
  <g transform="translate(150, 150)" fill="#45C2B1">
    <path d="M20 80c5.523 0 10-4.477 10-10V20l60-15v55c0 5.523 4.477 10 10 10s10-4.477 10-10V0l-90 22.5V70c0 5.523 4.477 10 10 10z"/>
  </g>
</svg>